<svg width="44" height="44" viewBox="0 0 44 44" fill="none" xmlns="http://www.w3.org/2000/svg">
<rect width="44" height="44" rx="4" fill="#EDE9FE"/>
<path d="M14.5 26.5013C13 27.7613 12.5 31.5013 12.5 31.5013C12.5 31.5013 16.24 31.0013 17.5 29.5013C18.21 28.6613 18.2 27.3713 17.41 26.5913C17.0213 26.2203 16.5093 26.0059 15.9722 25.9893C15.4352 25.9727 14.9109 26.155 14.5 26.5013Z" stroke="#8163FF" strokeWidth="2" strokeLinecap="round" strokeLinejoin="round"/>
<path d="M22 25.0002L19 22.0002C19.5321 20.6197 20.2022 19.2963 21 18.0502C22.1652 16.1872 23.7876 14.6533 25.713 13.5943C27.6384 12.5354 29.8027 11.9866 32 12.0002C32 14.7202 31.22 19.5002 26 23.0002C24.7369 23.799 23.3968 24.469 22 25.0002Z" stroke="#8163FF" strokeWidth="2" strokeLinecap="round" strokeLinejoin="round"/>
<path d="M19 21.9995H14C14 21.9995 14.55 18.9695 16 17.9995C17.62 16.9195 21 17.9995 21 17.9995" stroke="#8163FF" strokeWidth="2" strokeLinecap="round" strokeLinejoin="round"/>
<path d="M22 25V30C22 30 25.03 29.45 26 28C27.08 26.38 26 23 26 23" stroke="#8163FF" strokeWidth="2" strokeLinecap="round" strokeLinejoin="round"/>
</svg>
