<svg width="44" height="44" viewBox="0 0 44 44" fill="none" xmlns="http://www.w3.org/2000/svg">
<rect width="44" height="44" rx="4" fill="#FBE7F3"/>
<path d="M21.5248 12.2949C21.5687 12.2064 21.6364 12.1318 21.7203 12.0797C21.8042 12.0276 21.9011 12 21.9998 12C22.0986 12 22.1955 12.0276 22.2794 12.0797C22.3633 12.1318 22.431 12.2064 22.4748 12.2949L24.7848 16.9739C24.937 17.2819 25.1617 17.5483 25.4395 17.7503C25.7173 17.9524 26.04 18.084 26.3798 18.1339L31.5458 18.8899C31.6437 18.9041 31.7357 18.9454 31.8113 19.0091C31.887 19.0728 31.9433 19.1564 31.9739 19.2505C32.0045 19.3446 32.0081 19.4453 31.9844 19.5413C31.9607 19.6374 31.9107 19.7248 31.8398 19.7939L28.1038 23.4319C27.8575 23.672 27.6731 23.9684 27.5667 24.2955C27.4602 24.6227 27.4349 24.9708 27.4928 25.3099L28.3748 30.4499C28.3921 30.5477 28.3816 30.6485 28.3443 30.7406C28.3071 30.8327 28.2448 30.9125 28.1644 30.9709C28.084 31.0293 27.9888 31.0639 27.8897 31.0708C27.7906 31.0777 27.6915 31.0566 27.6038 31.0099L22.9858 28.5819C22.6816 28.4221 22.343 28.3386 21.9993 28.3386C21.6557 28.3386 21.3171 28.4221 21.0128 28.5819L16.3958 31.0099C16.3082 31.0563 16.2092 31.0772 16.1103 31.0701C16.0114 31.0631 15.9164 31.0285 15.8361 30.9701C15.7559 30.9118 15.6937 30.8321 15.6565 30.7401C15.6193 30.6482 15.6087 30.5476 15.6258 30.4499L16.5068 25.3109C16.565 24.9716 16.5398 24.6233 16.4334 24.2959C16.3269 23.9686 16.1425 23.672 15.8958 23.4319L12.1598 19.7949C12.0884 19.7259 12.0378 19.6383 12.0138 19.542C11.9898 19.4456 11.9933 19.3445 12.0239 19.2501C12.0546 19.1557 12.1111 19.0717 12.1871 19.0079C12.2631 18.944 12.3556 18.9028 12.4538 18.8889L17.6188 18.1339C17.9591 18.0844 18.2822 17.953 18.5604 17.7509C18.8386 17.5488 19.0636 17.2822 19.2158 16.9739L21.5248 12.2949Z" stroke="#FF82CD" strokeWidth="2" strokeLinecap="round" strokeLinejoin="round"/>
</svg>
